<?xml version="1.0" encoding="utf-8"?>
<!-- Generator: Adobe Illustrator 25.0.1, SVG Export Plug-In . SVG Version: 6.00 Build 0)  -->
<svg version="1.1" id="Layer_1" xmlns="http://www.w3.org/2000/svg" xmlns:xlink="http://www.w3.org/1999/xlink" x="0px" y="0px"
	 viewBox="0 0 198.3 128.8" style="enable-background:new 0 0 198.3 128.8;" xml:space="preserve">
<style type="text/css">
	.st0{fill:none;stroke:#D12C5E;stroke-width:20;stroke-miterlimit:10;}
	.st1{display:none;}
	.st2{display:inline;fill:none;stroke:#D12C5E;stroke-width:5;stroke-miterlimit:10;}
	.st3{fill:none;stroke:#50806F;stroke-width:20;stroke-miterlimit:10;}
	.st4{fill:#D12C5E;stroke:#D12C5E;stroke-width:20;stroke-miterlimit:10;}
	.st5{fill:#D12C5E;}
</style>
<path class="st0" d="M103.8,36.4c-0.7-1-1.4-2-2.2-3c-0.8-1-1.7-2-2.6-3c-9-9.6-21.8-15.5-36-15.5c-27.3,0-49.5,22.2-49.5,49.5
	s22.2,49.5,49.5,49.5c14.2,0,27-6,36-15.5"/>
<g id="Image" class="st1">
	
		<image style="display:inline;overflow:visible;enable-background:new    ;" width="227" height="185" xlink:href="B807F5312ADB1F3F.jpeg"  transform="matrix(0.9946 0 0 0.9946 -11.3058 -208.0093)">
	</image>
</g>
<g id="Layer_1_1_" class="st1">
	<circle class="st2" cx="63" cy="-112.5" r="49.5"/>
	<circle class="st2" cx="135" cy="-112.5" r="49.5"/>
	<circle class="st2" cx="135" cy="-112.5" r="9.1"/>
	<line class="st2" x1="99" y1="-146.4" x2="128.5" y2="-106.2"/>
	<circle class="st2" cx="61.8" cy="-112.5" r="9.1"/>
	<line class="st2" x1="97.8" y1="-78.6" x2="68.3" y2="-118.9"/>
</g>
<path class="st3" d="M94.2,92.4c0.7,1,1.4,2,2.2,3c0.8,1,1.7,2,2.5,2.9c9,9.6,21.8,15.5,36,15.5c27.3,0,49.5-22.2,49.5-49.5
	s-22.2-49.5-49.5-49.5c-14.2,0-27,6-36,15.5"/>
<circle class="st4" cx="135" cy="64.4" r="8.3"/>
<circle class="st3" cx="63" cy="64.4" r="8.3"/>
<line class="st0" x1="101.6" y1="33.4" x2="129.2" y2="70.3"/>
<line class="st3" x1="68.9" y1="58.5" x2="96.5" y2="95.4"/>
<path class="st5" d="M94.7,14.2c0,0,8.9,4.9,14.8,13.3s-9.3,7.3-9.3,7.3l-13.3-12L94.7,14.2z"/>
</svg>
