<?xml version="1.0" encoding="utf-8"?>
<!-- Generator: Adobe Illustrator 25.0.1, SVG Export Plug-In . SVG Version: 6.00 Build 0)  -->
<svg version="1.1" id="Layer_1" xmlns="http://www.w3.org/2000/svg" xmlns:xlink="http://www.w3.org/1999/xlink" x="0px" y="0px"
	 viewBox="0 0 120.6 160.3" style="enable-background:new 0 0 120.6 160.3;" xml:space="preserve">
<style type="text/css">
	.st0{fill:#F1F2F2;}
</style>
<g id="Layer_2_1_">
</g>
<g id="Layer_1_1_">
	<path class="st0" d="M71.4,0.9c-15.7-2.8-31.5,0.7-44.5,9.8C16.2,18.2,8.3,29,4.3,41.3c-1.4-0.1-2.9,0-4.3,0v20
		c3.3-0.2,6.6,0.1,9.9,0.8c1.1,0.3,2.2,0.5,3.1,0.8l2,0.6c0.3,0.1,0.7,0.2,1,0.4l0,0l0,0l37.5,12.4c1.1,0.5,2.2,0.9,3.4,1.2
		c4.9,1.2,10.2,0.3,14.7-2.8c8.3-5.8,10.3-17.2,4.5-25.5c-2.8-4-7-6.7-11.8-7.5c-4.8-0.9-9.7,0.2-13.7,3c-2.8,2-4.9,4.6-6.2,7.6
		l-20.3-6.9c2.8-7.3,7.8-13.7,14.3-18.3c8.6-6,19.1-8.3,29.5-6.5c10.4,1.9,19.4,7.6,25.5,16.3c12.5,17.9,8.1,42.5-9.8,55
		c-9,6.3-19.8,8.6-30.5,6.3l-0.2-0.1c-0.8-0.2-1.7-0.4-2.5-0.6v-0.1L8.8,83.7c-0.6-0.3-1.3-0.5-1.9-0.6L6.7,83l0,0
		c-2.1-0.6-4.4-0.7-6.6-0.5v36.4c4.3,0.5,8.7-0.5,12.5-3.2c2.8-2,4.9-4.6,6.3-7.6l20.2,6.7c-2.8,7.4-7.8,13.8-14.3,18.4
		c-7.3,5.1-15.9,7.5-24.6,7v20c12.8,0.5,25.4-3.2,36.1-10.7s18.6-18.3,22.6-30.6c12.8,0.5,25.6-3.2,36.3-10.7
		c26.9-18.8,33.5-55.9,14.7-82.8C100.7,12.4,87.1,3.7,71.4,0.9z"/>
</g>
</svg>
